<svg width="417" height="184" viewBox="0 0 417 184" fill="none" xmlns="http://www.w3.org/2000/svg">
<g filter="url(#filter0_d_0_1)">
<rect x="20" y="65" width="377" height="95" rx="5" fill="white"/>
<rect x="20.5" y="65.5" width="376" height="94" rx="4.5" stroke="#E0E0E0"/>
</g>
<path d="M114.651 94L115.675 91.1165H119.791L120.815 94H122.108L118.369 83.8182H117.097L113.358 94H114.651ZM116.062 90.0227L117.693 85.429H117.773L119.403 90.0227H116.062ZM133.717 86.3636H132.444L130.336 92.4489H130.256L128.148 86.3636H126.876L129.7 94H130.893L133.717 86.3636ZM135.265 94H136.439V86.3636H135.265V94ZM135.862 85.0909C136.319 85.0909 136.697 84.733 136.697 84.2955C136.697 83.858 136.319 83.5 135.862 83.5C135.404 83.5 135.027 83.858 135.027 84.2955C135.027 84.733 135.404 85.0909 135.862 85.0909ZM141.471 94.1591C142.943 94.1591 143.44 93.2443 143.698 92.8267H143.838V94H144.971V83.8182H143.798V87.5767H143.698C143.44 87.179 142.982 86.2642 141.491 86.2642C139.562 86.2642 138.23 87.7955 138.23 90.2017C138.23 92.6278 139.562 94.1591 141.471 94.1591ZM141.63 93.1051C140.159 93.1051 139.403 91.8125 139.403 90.1818C139.403 88.571 140.139 87.3182 141.63 87.3182C143.062 87.3182 143.818 88.4716 143.818 90.1818C143.818 91.9119 143.042 93.1051 141.63 93.1051ZM149.53 94.179C150.862 94.179 151.558 93.4631 151.797 92.9659H151.857V94H153.03V88.9688C153.03 86.5426 151.181 86.2642 150.206 86.2642C149.053 86.2642 147.74 86.6619 147.144 88.054L148.257 88.4517C148.516 87.8949 149.127 87.2983 150.246 87.2983C151.325 87.2983 151.857 87.87 151.857 88.8494V88.8892C151.857 89.456 151.28 89.4062 149.888 89.5852C148.471 89.7692 146.925 90.0824 146.925 91.8324C146.925 93.3239 148.078 94.179 149.53 94.179ZM149.709 93.125C148.774 93.125 148.098 92.7074 148.098 91.892C148.098 90.9972 148.914 90.7188 149.828 90.5994C150.325 90.5398 151.658 90.4006 151.857 90.1619V91.2358C151.857 92.1903 151.101 93.125 149.709 93.125ZM162.311 94.1591C163.862 94.1591 164.995 93.3835 165.353 92.2301L164.22 91.9119C163.922 92.7074 163.23 93.1051 162.311 93.1051C160.934 93.1051 159.984 92.2152 159.929 90.5795H165.473V90.0824C165.473 87.2386 163.782 86.2642 162.191 86.2642C160.123 86.2642 158.751 87.8949 158.751 90.2415C158.751 92.5881 160.103 94.1591 162.311 94.1591ZM159.929 89.5653C160.009 88.3771 160.849 87.3182 162.191 87.3182C163.464 87.3182 164.279 88.2727 164.279 89.5653H159.929ZM161.595 85.3295H162.629L164.18 83.0227H162.808L161.595 85.3295ZM174.297 94.1591C175.988 94.1591 177.101 93.125 177.3 91.7727H176.127C175.908 92.608 175.212 93.1051 174.297 93.1051C172.905 93.1051 172.01 91.9517 172.01 90.1818C172.01 88.4517 172.925 87.3182 174.297 87.3182C175.331 87.3182 175.948 87.9545 176.127 88.6506H177.3C177.101 87.2188 175.888 86.2642 174.277 86.2642C172.209 86.2642 170.837 87.8949 170.837 90.2216C170.837 92.5085 172.15 94.1591 174.297 94.1591ZM182.118 94.1591C184.186 94.1591 185.578 92.5881 185.578 90.2216C185.578 87.8352 184.186 86.2642 182.118 86.2642C180.049 86.2642 178.657 87.8352 178.657 90.2216C178.657 92.5881 180.049 94.1591 182.118 94.1591ZM182.118 93.1051C180.547 93.1051 179.831 91.7528 179.831 90.2216C179.831 88.6903 180.547 87.3182 182.118 87.3182C183.689 87.3182 184.404 88.6903 184.404 90.2216C184.404 91.7528 183.689 93.1051 182.118 93.1051ZM187.369 94H188.542V89.2273C188.542 88.1087 189.357 87.3182 190.272 87.3182C191.162 87.3182 191.784 87.8999 191.784 88.7699V94H192.977V89.0284C192.977 88.044 193.593 87.3182 194.667 87.3182C195.502 87.3182 196.218 87.7607 196.218 88.8892V94H197.392V88.8892C197.392 87.0945 196.427 86.2642 195.065 86.2642C193.971 86.2642 193.171 86.7663 192.778 87.5568H192.698C192.32 86.7415 191.654 86.2642 190.65 86.2642C189.656 86.2642 188.92 86.7415 188.602 87.5568H188.502V86.3636H187.369V94ZM202.639 94.1591C204.707 94.1591 206.099 92.5881 206.099 90.2216C206.099 87.8352 204.707 86.2642 202.639 86.2642C200.571 86.2642 199.179 87.8352 199.179 90.2216C199.179 92.5881 200.571 94.1591 202.639 94.1591ZM202.639 93.1051C201.068 93.1051 200.352 91.7528 200.352 90.2216C200.352 88.6903 201.068 87.3182 202.639 87.3182C204.21 87.3182 204.926 88.6903 204.926 90.2216C204.926 91.7528 204.21 93.1051 202.639 93.1051ZM216.64 90.8778C216.64 92.3097 215.547 92.9659 214.672 92.9659C213.697 92.9659 213.001 92.25 213.001 91.1364V86.3636H211.828V91.2159C211.828 93.1648 212.862 94.0994 214.294 94.0994C215.447 94.0994 216.203 93.483 216.561 92.7074H216.64V94H217.814V86.3636H216.64V90.8778ZM219.963 94H221.136V89.2273C221.136 88.1087 221.951 87.3182 222.866 87.3182C223.756 87.3182 224.377 87.8999 224.377 88.7699V94H225.57V89.0284C225.57 88.044 226.187 87.3182 227.261 87.3182C228.096 87.3182 228.812 87.7607 228.812 88.8892V94H229.985V88.8892C229.985 87.0945 229.021 86.2642 227.659 86.2642C226.565 86.2642 225.764 86.7663 225.372 87.5568H225.292C224.914 86.7415 224.248 86.2642 223.244 86.2642C222.249 86.2642 221.514 86.7415 221.195 87.5568H221.096V86.3636H219.963V94ZM241.477 88.0739C241.109 86.9901 240.284 86.2642 238.773 86.2642C237.162 86.2642 235.969 87.179 235.969 88.4716C235.969 89.5256 236.595 90.2315 237.997 90.5597L239.27 90.858C240.04 91.0369 240.403 91.4048 240.403 91.9318C240.403 92.5881 239.707 93.125 238.613 93.125C237.654 93.125 237.052 92.7124 236.844 91.892L235.73 92.1705C236.003 93.468 237.072 94.1591 238.633 94.1591C240.408 94.1591 241.616 93.1896 241.616 91.8722C241.616 90.8082 240.95 90.1371 239.588 89.804L238.454 89.5256C237.55 89.3018 237.142 88.9986 237.142 88.4119C237.142 87.7557 237.838 87.2784 238.773 87.2784C239.797 87.2784 240.219 87.8452 240.423 88.3722L241.477 88.0739ZM245.63 94.179C246.962 94.179 247.658 93.4631 247.897 92.9659H247.956V94H249.13V88.9688C249.13 86.5426 247.28 86.2642 246.306 86.2642C245.152 86.2642 243.84 86.6619 243.243 88.054L244.357 88.4517C244.615 87.8949 245.227 87.2983 246.346 87.2983C247.424 87.2983 247.956 87.87 247.956 88.8494V88.8892C247.956 89.456 247.38 89.4062 245.988 89.5852C244.571 89.7692 243.025 90.0824 243.025 91.8324C243.025 93.3239 244.178 94.179 245.63 94.179ZM245.809 93.125C244.874 93.125 244.198 92.7074 244.198 91.892C244.198 90.9972 245.013 90.7188 245.928 90.5994C246.425 90.5398 247.757 90.4006 247.956 90.1619V91.2358C247.956 92.1903 247.201 93.125 245.809 93.125ZM252.444 89.4062C252.444 88.0739 253.27 87.3182 254.393 87.3182C255.482 87.3182 256.143 88.0291 256.143 89.2273V94H257.317V89.1477C257.317 87.1989 256.278 86.2642 254.731 86.2642C253.578 86.2642 252.862 86.7812 252.504 87.5568H252.405V86.3636H251.271V94H252.444V89.4062ZM262.344 94.1591C263.816 94.1591 264.313 93.2443 264.571 92.8267H264.711V94H265.844V83.8182H264.671V87.5767H264.571C264.313 87.179 263.855 86.2642 262.364 86.2642C260.435 86.2642 259.103 87.7955 259.103 90.2017C259.103 92.6278 260.435 94.1591 262.344 94.1591ZM262.503 93.1051C261.032 93.1051 260.276 91.8125 260.276 90.1818C260.276 88.571 261.012 87.3182 262.503 87.3182C263.935 87.3182 264.691 88.4716 264.691 90.1818C264.691 91.9119 263.915 93.1051 262.503 93.1051ZM272.968 90.8778C272.968 92.3097 271.875 92.9659 271 92.9659C270.025 92.9659 269.329 92.25 269.329 91.1364V86.3636H268.156V91.2159C268.156 93.1648 269.19 94.0994 270.622 94.0994C271.775 94.0994 272.531 93.483 272.889 92.7074H272.968V94H274.142V86.3636H272.968V90.8778ZM276.291 94H277.464V86.3636H276.291V94ZM276.35 85.3295H277.384L278.936 83.0227H277.563L276.35 85.3295ZM282.715 94.1591C284.406 94.1591 285.519 93.125 285.718 91.7727H284.545C284.326 92.608 283.63 93.1051 282.715 93.1051C281.323 93.1051 280.428 91.9517 280.428 90.1818C280.428 88.4517 281.343 87.3182 282.715 87.3182C283.749 87.3182 284.366 87.9545 284.545 88.6506H285.718C285.519 87.2188 284.306 86.2642 282.695 86.2642C280.627 86.2642 279.255 87.8949 279.255 90.2216C279.255 92.5085 280.567 94.1591 282.715 94.1591ZM288.607 89.4062C288.607 88.0739 289.457 87.3182 290.615 87.3182C291.719 87.3182 292.385 88.0142 292.385 89.2273V94H293.558V89.1477C293.558 87.1839 292.514 86.2642 290.953 86.2642C289.75 86.2642 289.064 86.7663 288.706 87.5568H288.607V83.8182H287.433V94H288.607V89.4062ZM298.906 94.1591C300.458 94.1591 301.591 93.3835 301.949 92.2301L300.816 91.9119C300.517 92.7074 299.826 93.1051 298.906 93.1051C297.529 93.1051 296.58 92.2152 296.525 90.5795H302.068V90.0824C302.068 87.2386 300.378 86.2642 298.787 86.2642C296.719 86.2642 295.347 87.8949 295.347 90.2415C295.347 92.5881 296.699 94.1591 298.906 94.1591ZM296.525 89.5653C296.605 88.3771 297.445 87.3182 298.787 87.3182C300.06 87.3182 300.875 88.2727 300.875 89.5653H296.525ZM305.603 92.608H304.33L304.271 93.1648C304.127 94.5121 303.843 95.8544 303.714 96.4858H304.609C304.847 95.8097 305.355 94.2784 305.524 93.1449L305.603 92.608ZM314.916 94.1591C316.467 94.1591 317.601 93.3835 317.959 92.2301L316.825 91.9119C316.527 92.7074 315.836 93.1051 314.916 93.1051C313.539 93.1051 312.589 92.2152 312.535 90.5795H318.078V90.0824C318.078 87.2386 316.388 86.2642 314.797 86.2642C312.729 86.2642 311.357 87.8949 311.357 90.2415C311.357 92.5881 312.709 94.1591 314.916 94.1591ZM312.535 89.5653C312.614 88.3771 313.455 87.3182 314.797 87.3182C316.07 87.3182 316.885 88.2727 316.885 89.5653H312.535ZM314.2 85.3295H315.234L316.786 83.0227H315.413L314.2 85.3295ZM323.8 96.8636H324.974V92.8267H325.073C325.332 93.2443 325.829 94.1591 327.3 94.1591C329.21 94.1591 330.542 92.6278 330.542 90.2017C330.542 87.7955 329.21 86.2642 327.281 86.2642C325.789 86.2642 325.332 87.179 325.073 87.5767H324.934V86.3636H323.8V96.8636ZM324.954 90.1818C324.954 88.4716 325.71 87.3182 327.141 87.3182C328.633 87.3182 329.369 88.571 329.369 90.1818C329.369 91.8125 328.613 93.1051 327.141 93.1051C325.729 93.1051 324.954 91.9119 324.954 90.1818ZM332.332 94H333.505V89.1676C333.505 88.1335 334.32 87.3778 335.434 87.3778C335.747 87.3778 336.07 87.4375 336.15 87.4574V86.2642C336.016 86.2543 335.707 86.2443 335.533 86.2443C334.619 86.2443 333.823 86.7614 333.545 87.517H333.465V86.3636H332.332V94ZM340.51 94.1591C342.061 94.1591 343.195 93.3835 343.553 92.2301L342.419 91.9119C342.121 92.7074 341.43 93.1051 340.51 93.1051C339.133 93.1051 338.183 92.2152 338.129 90.5795H343.672V90.0824C343.672 87.2386 341.982 86.2642 340.391 86.2642C338.322 86.2642 336.95 87.8949 336.95 90.2415C336.95 92.5881 338.303 94.1591 340.51 94.1591ZM338.129 89.5653C338.208 88.3771 339.048 87.3182 340.391 87.3182C341.663 87.3182 342.479 88.2727 342.479 89.5653H338.129ZM348.559 94.1591C350.249 94.1591 351.363 93.125 351.562 91.7727H350.388C350.17 92.608 349.474 93.1051 348.559 93.1051C347.167 93.1051 346.272 91.9517 346.272 90.1818C346.272 88.4517 347.187 87.3182 348.559 87.3182C349.593 87.3182 350.21 87.9545 350.388 88.6506H351.562C351.363 87.2188 350.15 86.2642 348.539 86.2642C346.471 86.2642 345.099 87.8949 345.099 90.2216C345.099 92.5085 346.411 94.1591 348.559 94.1591ZM353.277 94H354.45V86.3636H353.277V94ZM353.874 85.0909C354.331 85.0909 354.709 84.733 354.709 84.2955C354.709 83.858 354.331 83.5 353.874 83.5C353.416 83.5 353.038 83.858 353.038 84.2955C353.038 84.733 353.416 85.0909 353.874 85.0909ZM362.008 88.0739C361.64 86.9901 360.815 86.2642 359.304 86.2642C357.693 86.2642 356.5 87.179 356.5 88.4716C356.5 89.5256 357.126 90.2315 358.528 90.5597L359.801 90.858C360.572 91.0369 360.934 91.4048 360.934 91.9318C360.934 92.5881 360.238 93.125 359.145 93.125C358.185 93.125 357.584 92.7124 357.375 91.892L356.261 92.1705C356.535 93.468 357.604 94.1591 359.165 94.1591C360.939 94.1591 362.148 93.1896 362.148 91.8722C362.148 90.8082 361.481 90.1371 360.119 89.804L358.986 89.5256C358.081 89.3018 357.673 88.9986 357.673 88.4119C357.673 87.7557 358.369 87.2784 359.304 87.2784C360.328 87.2784 360.751 87.8452 360.954 88.3722L362.008 88.0739ZM367.016 94.1591C369.084 94.1591 370.476 92.5881 370.476 90.2216C370.476 87.8352 369.084 86.2642 367.016 86.2642C364.948 86.2642 363.556 87.8352 363.556 90.2216C363.556 92.5881 364.948 94.1591 367.016 94.1591ZM367.016 93.1051C365.445 93.1051 364.729 91.7528 364.729 90.2216C364.729 88.6903 365.445 87.3182 367.016 87.3182C368.587 87.3182 369.303 88.6903 369.303 90.2216C369.303 91.7528 368.587 93.1051 367.016 93.1051ZM114.074 116H115.247V111.168C115.247 110.134 116.062 109.378 117.176 109.378C117.489 109.378 117.812 109.438 117.892 109.457V108.264C117.758 108.254 117.45 108.244 117.276 108.244C116.361 108.244 115.565 108.761 115.287 109.517H115.207V108.364H114.074V116ZM122.252 116.159C123.803 116.159 124.937 115.384 125.295 114.23L124.161 113.912C123.863 114.707 123.172 115.105 122.252 115.105C120.875 115.105 119.925 114.215 119.871 112.58H125.414V112.082C125.414 109.239 123.724 108.264 122.133 108.264C120.065 108.264 118.692 109.895 118.692 112.241C118.692 114.588 120.045 116.159 122.252 116.159ZM119.871 111.565C119.95 110.377 120.79 109.318 122.133 109.318C123.406 109.318 124.221 110.273 124.221 111.565H119.871ZM130.301 116.159C131.991 116.159 133.105 115.125 133.304 113.773H132.131C131.912 114.608 131.216 115.105 130.301 115.105C128.909 115.105 128.014 113.952 128.014 112.182C128.014 110.452 128.929 109.318 130.301 109.318C131.335 109.318 131.952 109.955 132.131 110.651H133.304C133.105 109.219 131.892 108.264 130.281 108.264C128.213 108.264 126.841 109.895 126.841 112.222C126.841 114.509 128.153 116.159 130.301 116.159ZM136.192 111.406C136.192 110.074 137.043 109.318 138.201 109.318C139.305 109.318 139.971 110.014 139.971 111.227V116H141.144V111.148C141.144 109.184 140.1 108.264 138.539 108.264C137.336 108.264 136.65 108.766 136.292 109.557H136.192V105.818H135.019V116H136.192V111.406ZM146.492 116.159C148.044 116.159 149.177 115.384 149.535 114.23L148.401 113.912C148.103 114.707 147.412 115.105 146.492 115.105C145.115 115.105 144.166 114.215 144.111 112.58H149.654V112.082C149.654 109.239 147.964 108.264 146.373 108.264C144.305 108.264 142.933 109.895 142.933 112.241C142.933 114.588 144.285 116.159 146.492 116.159ZM144.111 111.565C144.191 110.377 145.031 109.318 146.373 109.318C147.646 109.318 148.461 110.273 148.461 111.565H144.111ZM153.686 116.179C155.019 116.179 155.715 115.463 155.953 114.966H156.013V116H157.186V110.969C157.186 108.543 155.337 108.264 154.362 108.264C153.209 108.264 151.896 108.662 151.3 110.054L152.414 110.452C152.672 109.895 153.284 109.298 154.402 109.298C155.481 109.298 156.013 109.87 156.013 110.849V110.889C156.013 111.456 155.436 111.406 154.044 111.585C152.627 111.769 151.081 112.082 151.081 113.832C151.081 115.324 152.235 116.179 153.686 116.179ZM153.865 115.125C152.931 115.125 152.254 114.707 152.254 113.892C152.254 112.997 153.07 112.719 153.985 112.599C154.482 112.54 155.814 112.401 156.013 112.162V113.236C156.013 114.19 155.257 115.125 153.865 115.125ZM153.905 107.33H154.939L156.49 105.023H155.118L153.905 107.33ZM163.703 111.088H159.248V112.182H163.703V111.088ZM166.941 105.818H165.767V116H166.941V105.818ZM171.337 116.179C172.669 116.179 173.365 115.463 173.604 114.966H173.663V116H174.837V110.969C174.837 108.543 172.987 108.264 172.013 108.264C170.859 108.264 169.547 108.662 168.95 110.054L170.064 110.452C170.322 109.895 170.934 109.298 172.053 109.298C173.131 109.298 173.663 109.87 173.663 110.849V110.889C173.663 111.456 173.087 111.406 171.695 111.585C170.278 111.769 168.732 112.082 168.732 113.832C168.732 115.324 169.885 116.179 171.337 116.179ZM171.516 115.125C170.581 115.125 169.905 114.707 169.905 113.892C169.905 112.997 170.72 112.719 171.635 112.599C172.132 112.54 173.464 112.401 173.663 112.162V113.236C173.663 114.19 172.908 115.125 171.516 115.125ZM184.018 116.159C185.708 116.159 186.822 115.125 187.021 113.773H185.847C185.629 114.608 184.933 115.105 184.018 115.105C182.626 115.105 181.731 113.952 181.731 112.182C181.731 110.452 182.646 109.318 184.018 109.318C185.052 109.318 185.669 109.955 185.847 110.651H187.021C186.822 109.219 185.609 108.264 183.998 108.264C181.93 108.264 180.558 109.895 180.558 112.222C180.558 114.509 181.87 116.159 184.018 116.159ZM191.838 116.159C193.906 116.159 195.298 114.588 195.298 112.222C195.298 109.835 193.906 108.264 191.838 108.264C189.77 108.264 188.378 109.835 188.378 112.222C188.378 114.588 189.77 116.159 191.838 116.159ZM191.838 115.105C190.267 115.105 189.551 113.753 189.551 112.222C189.551 110.69 190.267 109.318 191.838 109.318C193.409 109.318 194.125 110.69 194.125 112.222C194.125 113.753 193.409 115.105 191.838 115.105ZM197.089 116H198.263V111.227C198.263 110.109 199.078 109.318 199.993 109.318C200.883 109.318 201.504 109.9 201.504 110.77V116H202.697V111.028C202.697 110.044 203.314 109.318 204.388 109.318C205.223 109.318 205.939 109.761 205.939 110.889V116H207.112V110.889C207.112 109.094 206.148 108.264 204.786 108.264C203.692 108.264 202.891 108.766 202.499 109.557H202.419C202.041 108.741 201.375 108.264 200.371 108.264C199.376 108.264 198.641 108.741 198.322 109.557H198.223V108.364H197.089V116ZM216.297 116.159C218.365 116.159 219.757 114.588 219.757 112.222C219.757 109.835 218.365 108.264 216.297 108.264C214.229 108.264 212.837 109.835 212.837 112.222C212.837 114.588 214.229 116.159 216.297 116.159ZM216.297 115.105C214.726 115.105 214.01 113.753 214.01 112.222C214.01 110.69 214.726 109.318 216.297 109.318C217.868 109.318 218.584 110.69 218.584 112.222C218.584 113.753 217.868 115.105 216.297 115.105ZM226.958 110.074C226.59 108.99 225.764 108.264 224.253 108.264C222.642 108.264 221.449 109.179 221.449 110.472C221.449 111.526 222.075 112.232 223.477 112.56L224.75 112.858C225.521 113.037 225.884 113.405 225.884 113.932C225.884 114.588 225.188 115.125 224.094 115.125C223.134 115.125 222.533 114.712 222.324 113.892L221.21 114.17C221.484 115.468 222.553 116.159 224.114 116.159C225.889 116.159 227.097 115.19 227.097 113.872C227.097 112.808 226.431 112.137 225.068 111.804L223.935 111.526C223.03 111.302 222.622 110.999 222.622 110.412C222.622 109.756 223.318 109.278 224.253 109.278C225.277 109.278 225.7 109.845 225.904 110.372L226.958 110.074ZM114.074 138H115.247V130.364H114.074V138ZM114.67 129.091C115.128 129.091 115.506 128.733 115.506 128.295C115.506 127.858 115.128 127.5 114.67 127.5C114.213 127.5 113.835 127.858 113.835 128.295C113.835 128.733 114.213 129.091 114.67 129.091ZM118.569 133.406C118.569 132.074 119.395 131.318 120.518 131.318C121.607 131.318 122.268 132.029 122.268 133.227V138H123.442V133.148C123.442 131.199 122.403 130.264 120.856 130.264C119.703 130.264 118.987 130.781 118.629 131.557H118.53V130.364H117.396V138H118.569V133.406ZM128.668 141.023C130.498 141.023 131.969 140.188 131.969 138.219V130.364H130.836V131.577H130.716C130.458 131.179 129.98 130.264 128.489 130.264C126.56 130.264 125.228 131.795 125.228 134.142C125.228 136.528 126.62 137.881 128.469 137.881C129.961 137.881 130.438 137.006 130.696 136.588H130.796V138.139C130.796 139.412 129.901 139.989 128.668 139.989C127.281 139.989 126.794 139.258 126.48 138.835L125.546 139.491C126.023 140.292 126.963 141.023 128.668 141.023ZM128.628 136.827C127.157 136.827 126.401 135.713 126.401 134.122C126.401 132.571 127.137 131.318 128.628 131.318C130.06 131.318 130.816 132.472 130.816 134.122C130.816 135.812 130.04 136.827 128.628 136.827ZM134.117 138H135.29V133.168C135.29 132.134 136.105 131.378 137.219 131.378C137.532 131.378 137.855 131.438 137.935 131.457V130.264C137.801 130.254 137.493 130.244 137.319 130.244C136.404 130.244 135.608 130.761 135.33 131.517H135.25V130.364H134.117V138ZM142.295 138.159C143.846 138.159 144.98 137.384 145.338 136.23L144.204 135.912C143.906 136.707 143.215 137.105 142.295 137.105C140.918 137.105 139.968 136.215 139.914 134.58H145.457V134.082C145.457 131.239 143.767 130.264 142.176 130.264C140.108 130.264 138.735 131.895 138.735 134.241C138.735 136.588 140.088 138.159 142.295 138.159ZM139.914 133.565C139.993 132.377 140.833 131.318 142.176 131.318C143.449 131.318 144.264 132.273 144.264 133.565H139.914ZM150.125 138.159C151.597 138.159 152.094 137.244 152.353 136.827H152.492V138H153.625V127.818H152.452V131.577H152.353C152.094 131.179 151.637 130.264 150.145 130.264C148.216 130.264 146.884 131.795 146.884 134.202C146.884 136.628 148.216 138.159 150.125 138.159ZM150.284 137.105C148.813 137.105 148.057 135.812 148.057 134.182C148.057 132.571 148.793 131.318 150.284 131.318C151.716 131.318 152.472 132.472 152.472 134.182C152.472 135.912 151.696 137.105 150.284 137.105ZM155.937 138H157.11V130.364H155.937V138ZM156.534 129.091C156.991 129.091 157.369 128.733 157.369 128.295C157.369 127.858 156.991 127.5 156.534 127.5C156.076 127.5 155.699 127.858 155.699 128.295C155.699 128.733 156.076 129.091 156.534 129.091ZM162.461 138.159C164.012 138.159 165.146 137.384 165.504 136.23L164.37 135.912C164.072 136.707 163.381 137.105 162.461 137.105C161.084 137.105 160.134 136.215 160.08 134.58H165.623V134.082C165.623 131.239 163.933 130.264 162.342 130.264C160.274 130.264 158.901 131.895 158.901 134.241C158.901 136.588 160.254 138.159 162.461 138.159ZM160.08 133.565C160.159 132.377 160.999 131.318 162.342 131.318C163.615 131.318 164.43 132.273 164.43 133.565H160.08ZM168.581 133.406C168.581 132.074 169.406 131.318 170.53 131.318C171.619 131.318 172.28 132.029 172.28 133.227V138H173.453V133.148C173.453 131.199 172.414 130.264 170.868 130.264C169.715 130.264 168.999 130.781 168.641 131.557H168.541V130.364H167.408V138H168.581V133.406ZM178.918 130.364H177.288V128.534H176.114V130.364H174.961V131.358H176.114V136.131C176.114 137.463 177.188 138.099 178.183 138.099C178.62 138.099 178.898 138.02 179.058 137.96L178.819 136.906C178.719 136.926 178.56 136.966 178.302 136.966C177.785 136.966 177.288 136.807 177.288 135.812V131.358H178.918V130.364ZM183.803 138.159C185.354 138.159 186.488 137.384 186.846 136.23L185.712 135.912C185.414 136.707 184.723 137.105 183.803 137.105C182.426 137.105 181.476 136.215 181.422 134.58H186.965V134.082C186.965 131.239 185.275 130.264 183.684 130.264C181.615 130.264 180.243 131.895 180.243 134.241C180.243 136.588 181.596 138.159 183.803 138.159ZM181.422 133.565C181.501 132.377 182.341 131.318 183.684 131.318C184.956 131.318 185.772 132.273 185.772 133.565H181.422ZM194.159 132.074C193.791 130.99 192.966 130.264 191.454 130.264C189.843 130.264 188.65 131.179 188.65 132.472C188.65 133.526 189.277 134.232 190.679 134.56L191.951 134.858C192.722 135.037 193.085 135.405 193.085 135.932C193.085 136.588 192.389 137.125 191.295 137.125C190.336 137.125 189.734 136.712 189.525 135.892L188.412 136.17C188.685 137.468 189.754 138.159 191.315 138.159C193.09 138.159 194.298 137.19 194.298 135.872C194.298 134.808 193.632 134.137 192.27 133.804L191.136 133.526C190.231 133.302 189.824 132.999 189.824 132.412C189.824 131.756 190.52 131.278 191.454 131.278C192.478 131.278 192.901 131.845 193.105 132.372L194.159 132.074ZM196.919 138.08C197.411 138.08 197.814 137.677 197.814 137.185C197.814 136.692 197.411 136.29 196.919 136.29C196.427 136.29 196.024 136.692 196.024 137.185C196.024 137.677 196.427 138.08 196.919 138.08Z" fill="#828282"/>
<path d="M232.726 116H234.212V111.292C234.212 110.263 234.933 109.547 235.778 109.547C236.604 109.547 237.175 110.094 237.175 110.924V116H238.657V111.133C238.657 110.213 239.219 109.547 240.188 109.547C240.974 109.547 241.62 109.984 241.62 111.018V116H243.107V110.879C243.107 109.134 242.132 108.264 240.75 108.264C239.651 108.264 238.826 108.791 238.458 109.607H238.379C238.045 108.771 237.344 108.264 236.325 108.264C235.316 108.264 234.565 108.766 234.247 109.607H234.153V108.364H232.726V116ZM248.39 116.154C250.056 116.154 251.234 115.334 251.572 114.091L250.165 113.837C249.896 114.558 249.25 114.926 248.405 114.926C247.132 114.926 246.277 114.101 246.237 112.629H251.666V112.102C251.666 109.343 250.016 108.264 248.286 108.264C246.158 108.264 244.756 109.885 244.756 112.232C244.756 114.603 246.138 116.154 248.39 116.154ZM246.242 111.516C246.302 110.432 247.088 109.492 248.296 109.492C249.449 109.492 250.205 110.347 250.21 111.516H246.242ZM254.802 105.818H253.316V116H254.802V105.818ZM258.289 111.466C258.289 110.248 259.059 109.552 260.118 109.552C261.142 109.552 261.754 110.203 261.754 111.322V116H263.24V111.143C263.24 109.239 262.196 108.264 260.625 108.264C259.437 108.264 258.721 108.781 258.363 109.607H258.269V105.818H256.802V116H258.289V111.466ZM268.441 116.154C270.593 116.154 272 114.578 272 112.217C272 109.84 270.593 108.264 268.441 108.264C266.288 108.264 264.881 109.84 264.881 112.217C264.881 114.578 266.288 116.154 268.441 116.154ZM268.445 114.906C267.039 114.906 266.382 113.678 266.382 112.212C266.382 110.75 267.039 109.507 268.445 109.507C269.843 109.507 270.499 110.75 270.499 112.212C270.499 113.678 269.843 114.906 268.445 114.906ZM273.659 116H275.146V111.337C275.146 110.337 275.917 109.616 276.971 109.616C277.279 109.616 277.627 109.671 277.746 109.706V108.284C277.597 108.264 277.304 108.249 277.115 108.249C276.22 108.249 275.454 108.756 275.176 109.577H275.096V108.364H273.659V116ZM282.05 116.154C283.716 116.154 284.894 115.334 285.232 114.091L283.825 113.837C283.557 114.558 282.91 114.926 282.065 114.926C280.792 114.926 279.937 114.101 279.898 112.629H285.327V112.102C285.327 109.343 283.676 108.264 281.946 108.264C279.818 108.264 278.416 109.885 278.416 112.232C278.416 114.603 279.798 116.154 282.05 116.154ZM279.903 111.516C279.962 110.432 280.748 109.492 281.956 109.492C283.109 109.492 283.865 110.347 283.87 111.516H279.903ZM292.698 110.228C292.39 109.04 291.46 108.264 289.81 108.264C288.085 108.264 286.862 109.174 286.862 110.526C286.862 111.61 287.518 112.331 288.95 112.649L290.242 112.933C290.978 113.097 291.321 113.425 291.321 113.902C291.321 114.494 290.69 114.956 289.715 114.956C288.825 114.956 288.254 114.573 288.075 113.822L286.638 114.041C286.886 115.393 288.01 116.154 289.725 116.154C291.57 116.154 292.847 115.175 292.847 113.793C292.847 112.714 292.161 112.048 290.759 111.724L289.546 111.446C288.706 111.247 288.343 110.964 288.348 110.447C288.343 109.86 288.979 109.442 289.825 109.442C290.749 109.442 291.177 109.955 291.351 110.467L292.698 110.228Z" fill="#333333"/>
<mask id="mask0_0_1" style="mask-type:alpha" maskUnits="userSpaceOnUse" x="20" y="0" width="230" height="35">
<path d="M20 26.988H31.5305C37.5922 26.988 40.8208 23.8253 40.8208 19.5294C40.8208 15.5365 37.9612 13.125 34.8908 12.98V12.7165C37.6977 12.084 39.7666 10.0941 39.7666 6.9183C39.7666 2.87274 36.762 0 30.8057 0H20V26.988ZM25.7059 22.323V15.1544H30.4895C33.2304 15.1544 34.9303 16.7357 34.9303 18.9627C34.9303 20.9921 33.5467 22.323 30.3577 22.323H25.7059ZM25.7059 11.2933V4.6122H30.0414C32.5715 4.6122 34.0079 5.91679 34.0079 7.86709C34.0079 10.0019 32.2684 11.2933 29.936 11.2933H25.7059Z" fill="#333333"/>
<path d="M57.4082 18.3697C57.4214 21.0843 55.5633 22.5075 53.5472 22.5075C51.4255 22.5075 50.0551 21.0184 50.0419 18.6333V6.74699H44.4282V19.6348C44.4414 24.3656 47.2087 27.2515 51.2806 27.2515C54.3246 27.2515 56.5121 25.6834 57.4214 23.3114H57.6322V26.988H63.0219V6.74699H57.4082V18.3697Z" fill="#333333"/>
<path d="M67.5122 26.988H73.1259V15.5365C73.1259 13.0459 74.9445 11.3328 77.4219 11.3328C78.1994 11.3328 79.2668 11.4646 79.7939 11.6359V6.65474C79.2931 6.53614 78.5947 6.45708 78.028 6.45708C75.7615 6.45708 73.9034 7.77485 73.1655 10.2786H72.9546V6.74699H67.5122V26.988Z" fill="#333333"/>
<path d="M90.873 35C96.658 35 100.769 32.3645 100.769 27.1856V6.74699H95.1953V10.1468H94.9845C94.2333 8.49962 92.5861 6.48343 89.1995 6.48343C84.7586 6.48343 81.0029 9.93599 81.0029 16.8279C81.0029 23.5617 84.6531 26.698 89.2126 26.698C92.4412 26.698 94.2465 25.0772 94.9845 23.4036H95.2217V27.1066C95.2217 29.887 93.4427 30.9676 91.0048 30.9676C88.5274 30.9676 87.2755 29.887 86.8143 28.6615L81.6223 29.3599C82.2943 32.5489 85.4175 35 90.873 35ZM90.9916 22.4812C88.2375 22.4812 86.7352 20.2937 86.7352 16.8016C86.7352 13.3622 88.2111 10.9507 90.9916 10.9507C93.7194 10.9507 95.248 13.2568 95.248 16.8016C95.248 20.3727 93.6931 22.4812 90.9916 22.4812Z" fill="#333333"/>
<path d="M118.217 18.3697C118.23 21.0843 116.372 22.5075 114.356 22.5075C112.234 22.5075 110.864 21.0184 110.85 18.6333V6.74699H105.237V19.6348C105.25 24.3656 108.017 27.2515 112.089 27.2515C115.133 27.2515 117.321 25.6834 118.23 23.3114H118.441V26.988H123.83V6.74699H118.217V18.3697Z" fill="#333333"/>
<path d="M137.545 27.3833C142.553 27.3833 145.926 24.9454 146.717 21.1898L141.525 20.8471C140.958 22.3889 139.509 23.1928 137.637 23.1928C134.831 23.1928 133.052 21.3347 133.052 18.317V18.3038H146.835V16.762C146.835 9.88328 142.671 6.48343 137.321 6.48343C131.365 6.48343 127.504 10.7135 127.504 16.9597C127.504 23.3773 131.312 27.3833 137.545 27.3833ZM133.052 14.8249C133.17 12.5188 134.923 10.6739 137.413 10.6739C139.851 10.6739 141.538 12.4134 141.551 14.8249H133.052Z" fill="#333333"/>
<path d="M150.499 26.988H156.113V15.5365C156.113 13.0459 157.931 11.3328 160.409 11.3328C161.186 11.3328 162.253 11.4646 162.78 11.6359V6.65474C162.28 6.53614 161.581 6.45708 161.015 6.45708C158.748 6.45708 156.89 7.77485 156.152 10.2786H155.941V6.74699H150.499V26.988Z" fill="#333333"/>
<path d="M173.532 26.988H177.184V22.0795L178.981 19.8867L183.712 26.988H188.081L181.595 17.4494L188.005 9.71566H183.628L177.412 17.3313H177.184V9.71566H173.532V26.988Z" fill="#333333"/>
<path d="M194.792 27.241C197.997 27.241 200.156 25.6807 200.662 23.2771L197.339 23.0578C196.976 24.0446 196.048 24.559 194.851 24.559C193.054 24.559 191.916 23.3699 191.916 21.4386V21.4301H200.738V20.4434C200.738 16.041 198.073 13.8651 194.648 13.8651C190.836 13.8651 188.365 16.5723 188.365 20.5699C188.365 24.6771 190.803 27.241 194.792 27.241ZM191.916 19.2036C191.992 17.7277 193.113 16.547 194.707 16.547C196.268 16.547 197.347 17.6602 197.356 19.2036H191.916Z" fill="#333333"/>
<path d="M206.675 19.4988C206.683 17.8289 207.679 16.8506 209.129 16.8506C210.571 16.8506 211.44 17.7952 211.432 19.3807V26.988H215.024V18.7398C215.024 15.7205 213.253 13.8651 210.554 13.8651C208.632 13.8651 207.24 14.8096 206.658 16.3193H206.506V14.0337H203.082V26.988H206.675V19.4988Z" fill="#333333"/>
<path d="M217.788 26.988H228.676V24.1205H222.503V24.0277L228.457 16.3699V14.0337H218.008V16.9012H224.131V16.994L217.788 24.8458V26.988Z" fill="#333333"/>
<path d="M231.424 26.988H235.016V14.0337H231.424V26.988ZM233.229 12.3639C234.3 12.3639 235.177 11.5458 235.177 10.5422C235.177 9.54699 234.3 8.72892 233.229 8.72892C232.166 8.72892 231.289 9.54699 231.289 10.5422C231.289 11.5458 232.166 12.3639 233.229 12.3639Z" fill="#333333"/>
<path d="M243.798 27.241C247.003 27.241 249.162 25.6807 249.668 23.2771L246.345 23.0578C245.982 24.0446 245.055 24.559 243.857 24.559C242.061 24.559 240.922 23.3699 240.922 21.4386V21.4301H249.744V20.4434C249.744 16.041 247.079 13.8651 243.655 13.8651C239.843 13.8651 237.372 16.5723 237.372 20.5699C237.372 24.6771 239.809 27.241 243.798 27.241ZM240.922 19.2036C240.998 17.7277 242.12 16.547 243.714 16.547C245.274 16.547 246.354 17.6602 246.362 19.2036H240.922Z" fill="#333333"/>
</mask>
<g mask="url(#mask0_0_1)">
<rect x="11.0941" y="-13.3591" width="243.431" height="56.4048" fill="url(#paint0_linear_0_1)"/>
</g>
<rect x="34" y="82" width="60" height="60" rx="5" fill="#27AE60" fill-opacity="0.1"/>
<path d="M58 100L55 104V118C55 118.53 55.2107 119.039 55.5858 119.414C55.9609 119.789 56.4696 120 57 120H71C71.5304 120 72.0391 119.789 72.4142 119.414C72.7893 119.039 73 118.53 73 118V104L70 100H58Z" stroke="#219653" stroke-width="2" stroke-linecap="round" stroke-linejoin="round"/>
<path d="M55 104H73" stroke="#219653" stroke-width="2" stroke-linecap="round" stroke-linejoin="round"/>
<path d="M68 108C68 109.061 67.5786 110.078 66.8284 110.828C66.0783 111.579 65.0609 112 64 112C62.9391 112 61.9217 111.579 61.1716 110.828C60.4214 110.078 60 109.061 60 108" stroke="#219653" stroke-width="2" stroke-linecap="round" stroke-linejoin="round"/>
<defs>
<filter id="filter0_d_0_1" x="0" y="49" width="417" height="135" filterUnits="userSpaceOnUse" color-interpolation-filters="sRGB">
<feFlood flood-opacity="0" result="BackgroundImageFix"/>
<feColorMatrix in="SourceAlpha" type="matrix" values="0 0 0 0 0 0 0 0 0 0 0 0 0 0 0 0 0 0 127 0" result="hardAlpha"/>
<feMorphology radius="20" operator="erode" in="SourceAlpha" result="effect1_dropShadow_0_1"/>
<feOffset dy="4"/>
<feGaussianBlur stdDeviation="20"/>
<feComposite in2="hardAlpha" operator="out"/>
<feColorMatrix type="matrix" values="0 0 0 0 0 0 0 0 0 0 0 0 0 0 0 0 0 0 0.25 0"/>
<feBlend mode="normal" in2="BackgroundImageFix" result="effect1_dropShadow_0_1"/>
<feBlend mode="normal" in="SourceGraphic" in2="effect1_dropShadow_0_1" result="shape"/>
</filter>
<linearGradient id="paint0_linear_0_1" x1="163.59" y1="43.396" x2="168.695" y2="43.396" gradientUnits="userSpaceOnUse">
<stop stop-color="#333333"/>
<stop offset="1" stop-color="#EB5757"/>
</linearGradient>
</defs>
</svg>
